<svg width="506" height="200" viewBox="0 0 506 200" fill="none" xmlns="http://www.w3.org/2000/svg">
<path d="M158.544 131.895V130.395H157.044H129.574V70.1764V68.6764H128.074H110.692H109.252L109.193 70.1153L106.733 130.395H31.0287L107.806 7.9956L109.247 5.69853H106.536H84.7453H83.9154L83.4745 6.40165L1.72918 136.766L1.5 137.131V137.563V149.277V150.777H3H106.673V193.613V195.113H108.173H128.074H129.574V193.613V150.777H157.044H158.544V149.277V131.895ZM196.871 173.907L196.874 173.911C209.882 189.676 228.096 197.506 251.31 197.506C274.524 197.506 292.699 189.676 305.624 173.907C318.628 158.145 324.983 133.541 324.983 100.406C324.983 67.1909 318.671 42.5856 305.75 26.9053C292.906 11.1322 274.686 3.30536 251.31 3.30536C227.932 3.30536 209.672 11.1331 196.745 26.9044L196.744 26.9051C183.908 42.5847 177.637 67.1897 177.637 100.406C177.637 133.542 183.951 158.145 196.871 173.907ZM277.708 169.3L277.701 169.304C270.603 173.902 261.833 176.243 251.31 176.243C240.792 176.243 231.979 173.904 224.795 169.306C217.766 164.669 212.178 156.844 208.135 145.625C204.185 134.432 202.176 119.258 202.176 100.028C202.176 81.0526 204.185 66.0474 208.133 54.9392C212.176 43.8021 217.763 36.0618 224.791 31.5089C231.975 26.9089 240.79 24.569 251.31 24.569C261.828 24.569 270.595 26.9498 277.691 31.6268L277.699 31.6322L277.708 31.6376C284.813 36.1881 290.398 43.9644 294.358 55.1831L294.361 55.1923C298.393 66.3819 300.444 81.5538 300.444 100.784C300.444 119.76 298.393 134.763 294.362 145.868L294.359 145.877C290.401 157.01 284.816 164.748 277.708 169.3ZM348.956 126.196H347.456V127.696V145.078V146.578H348.956H376.426V189.415V190.915H377.926H397.827H399.327V189.415V146.578H503H504.5V145.078V133.364V132.933L504.271 132.567L422.525 2.20313L422.085 1.5H421.255H399.464H396.753L398.194 3.79707L474.971 126.196H399.267L396.807 65.9167L396.748 64.4779H395.308H377.926H376.426V65.9779V126.196H348.956Z" fill="white" stroke="#A5A5A5" stroke-width="3"/>
</svg>
